<?xml version="1.0" encoding="UTF-8"?>
<svg width="109px" height="115px" viewBox="0 0 109 115" version="1.1" xmlns="http://www.w3.org/2000/svg" xmlns:xlink="http://www.w3.org/1999/xlink">
    <!-- Generator: Sketch 52.5 (67469) - http://www.bohemiancoding.com/sketch -->
    <title>Combined Shape</title>
    <desc>Created with Sketch.</desc>
    <defs>
        <linearGradient x1="50%" y1="0%" x2="50%" y2="100%" id="linearGradient-1">
            <stop stop-color="#FA709A" offset="0%"></stop>
            <stop stop-color="#5333ED" offset="100%"></stop>
        </linearGradient>
    </defs>
    <g id="Page-1" stroke="none" stroke-width="1" fill="none" fill-rule="evenodd">
        <path d="M35.6618733,110.953817 C36.1181615,110.583637 36.5584235,110.187674 36.9810716,109.765768 C40.0027169,106.765456 41.6308505,102.851542 42.0378839,98.6194661 C42.3507131,95.268999 44.8622336,92.1975892 48.1576044,91.1293501 C50.4008647,90.4234971 52.4417422,89.1890969 54.1084683,87.5300419 C58.1734699,83.4632679 59.3945701,77.5124116 58.0188328,71.5775522 C57.4162812,68.9753857 56.1756291,66.600731 54.6132608,64.4322588 L68.1644513,50.8810855 L74.6485467,48.7197231 C75.5726002,48.4123315 76.411974,47.8931256 77.0996343,47.20357 L85.3345065,38.9704857 C87.5530811,36.7514445 87.5554671,33.1549023 85.3398388,30.9329193 L80.0732888,25.666376 C79.0065815,24.5994265 77.5596698,24 76.0509456,24 C74.5422215,24 73.0953097,24.5994265 72.0286025,25.666376 L63.8026174,33.9012377 C63.113061,34.5888972 62.5938545,35.4282699 62.2864625,36.3523222 L60.1250973,42.8417417 L46.5703519,56.3964699 C44.4089868,54.8394358 42.0378839,53.5987854 39.4428238,52.9944571 C33.4972923,51.6116117 27.5339863,52.8380427 23.4672072,56.9048167 C21.8082088,58.5705772 20.5743121,60.6110156 19.8696718,62.8538955 C18.8032088,66.152817 15.7442373,68.6643344 12.3777689,68.9789406 C9.82822563,69.223137 7.38741252,69.9172283 5.19245948,71.096679 C3.7291973,65.0772144 2.74403707,58.6674193 1.82221285,51.8604718 C-0.324458433,36.0089914 -2.12766231,18.0037771 5.94382171,8.69964729 C14.0153057,-0.604482549 31.9614776,-1.207528 47.5033777,1.20465381 C63.1311447,3.61683562 76.2687729,8.95809534 87.4314636,18.2622252 C98.5941542,27.566355 107.781907,40.7472056 108.898176,55.1341471 C109.928579,69.4349393 103.05923,84.9418224 91.8965398,96.4858353 C80.7338492,108.115998 65.2778159,115.869439 50.7663181,114.921796 C45.5471979,114.611957 40.4391474,113.187766 35.6618733,110.953817 Z M33.9166667,86.4509804 C29.2357827,86.4509804 25.4411765,82.6563742 25.4411765,77.9754902 C25.4411765,73.2946062 29.2357827,69.5 33.9166667,69.5 C38.5975506,69.5 42.3921569,73.2946062 42.3921569,77.9754902 C42.3921569,82.6563742 38.5975506,86.4509804 33.9166667,86.4509804 Z" id="Combined-Shape" fill="url(#linearGradient-1)"></path>
    </g>
</svg>