<?xml version="1.0" encoding="UTF-8"?>
<svg width="109px" height="115px" viewBox="0 0 109 115" version="1.1" xmlns="http://www.w3.org/2000/svg" xmlns:xlink="http://www.w3.org/1999/xlink">
    <!-- Generator: Sketch 52.5 (67469) - http://www.bohemiancoding.com/sketch -->
    <title>Combined Shape</title>
    <desc>Created with Sketch.</desc>
    <defs>
        <linearGradient x1="50%" y1="0%" x2="50%" y2="100%" id="linearGradient-1">
            <stop stop-color="#FA709A" offset="0%"></stop>
            <stop stop-color="#5333ED" offset="100%"></stop>
        </linearGradient>
    </defs>
    <g id="Page-1" stroke="none" stroke-width="1" fill="none" fill-rule="evenodd">
        <path d="M27.21875,105.943859 L27.21875,85.4166458 C27.21875,82.783416 29.3593885,80.6487615 32,80.6487615 C34.6406115,80.6487615 36.78125,82.783416 36.78125,85.4166458 L36.78125,106 C44.9352734,105.668235 52.5095703,104.486197 59.09375,102.676387 L59.09375,79.0495336 C59.09375,76.4163038 61.2343885,74.2816492 63.875,74.2816492 C66.5156115,74.2816492 68.65625,76.4163038 68.65625,79.0495336 L68.65625,99.293176 C77.5214844,95.2841799 83,89.8388586 83,83.8253644 L83,51.9937764 C83,43.3877451 75.8759375,38.1351258 66.9310156,34.8889912 L81.5795703,25.4684463 C82.2831563,25.0008966 82.7716369,24.2737461 82.9375242,23.4470011 C83.1034114,22.6202561 82.9331127,21.7616589 82.4641016,21.0601399 L80.6970313,18.4159507 C80.2281709,17.7143315 79.498982,17.2272164 78.6699194,17.0617929 C77.8408568,16.8963694 76.9798527,17.066192 76.2763672,17.5338921 L54.3503516,31.6388834 C44.4372266,29.8946323 35.0321094,29.71385 32,29.71385 C27.9850821,29.71385 12.8190977,29.9901773 0.0603296786,33.8503137 C-0.300748044,23.8267254 0.872327778,14.5456402 5.94382171,8.69964729 C14.0153057,-0.604482549 31.9614776,-1.207528 47.5033777,1.20465381 C63.1311447,3.61683562 76.2687729,8.95809534 87.4314636,18.2622252 C98.5941542,27.566355 107.781907,40.7472056 108.898176,55.1341471 C109.928579,69.4349393 103.05923,84.9418224 91.8965398,96.4858353 C80.7338492,108.115998 65.2778159,115.869439 50.7663181,114.921796 C42.3149148,114.420068 34.1547568,110.996306 27.21875,105.943859 Z M3.19910103,61.1482543 C2.6980341,58.1386764 2.25320109,55.0429813 1.82221285,51.8604718 C1.4560402,49.1565745 1.09986124,46.3900111 0.800981265,43.6146562 C8.39639148,40.9475813 19.5575439,39.2635251 32,39.2635251 C35.4166016,39.2635251 38.7196484,39.404575 41.8971875,39.6429692 L27.3920703,48.9800761 C26.6888078,49.4479377 26.2007339,50.1752322 26.0352247,51.0019552 C25.8697155,51.8286782 26.0403293,52.6871052 26.5095313,53.3883826 L28.2766016,56.0325718 C28.745462,56.7341909 29.4746509,57.221306 30.3037134,57.3867296 C31.132776,57.5521531 31.9937801,57.3823304 32.6972656,56.9146304 L56.3325781,41.7130257 C66.6819922,44.0175032 73.4375,47.7602924 73.4375,51.9937764 C73.4375,59.0264058 54.8842578,64.7260143 32,64.7260143 C20.8092005,64.7260143 10.6548836,63.3632587 3.19910103,61.1482543 Z" id="Combined-Shape" fill="url(#linearGradient-1)"></path>
    </g>
</svg>