<?xml version="1.0" encoding="UTF-8"?>
<svg width="109px" height="115px" viewBox="0 0 109 115" version="1.1" xmlns="http://www.w3.org/2000/svg" xmlns:xlink="http://www.w3.org/1999/xlink">
    <!-- Generator: Sketch 52.5 (67469) - http://www.bohemiancoding.com/sketch -->
    <title>Combined Shape</title>
    <desc>Created with Sketch.</desc>
    <defs>
        <linearGradient x1="50%" y1="0%" x2="50%" y2="100%" id="linearGradient-1">
            <stop stop-color="#FA709A" offset="0%"></stop>
            <stop stop-color="#5333ED" offset="100%"></stop>
        </linearGradient>
    </defs>
    <g id="Page-1" stroke="none" stroke-width="1" fill="none" fill-rule="evenodd">
        <path d="M21.6996581,101.343946 C24.8013953,99.4684067 26.75,96.7602735 26.75,93.7494094 L26.75,56.3219403 L67.75,44.3095294 L67.75,73.8776784 C66.0720209,73.4689081 64.3520202,73.2576584 62.625,73.2482281 C54.1367188,73.2482281 47.25,77.8385707 47.25,83.4988187 C47.25,89.1590667 54.1367188,93.7494094 62.625,93.7494094 C71.1132812,93.7494094 78,89.1606684 78,83.4988187 L78,27.1205702 C77.9984828,25.4887359 77.2200331,23.9551514 75.9037166,22.9907881 C74.5874001,22.0264247 72.8905573,21.7465537 71.3342969,22.2371248 L20.0891016,37.3711609 C17.9542873,38.0417987 16.5013425,40.0200182 16.5,42.2578096 L16.5,84.1266674 C14.8218003,83.7192982 13.1019016,83.5085985 11.375,83.4988187 C10.6692271,83.4988187 9.97452634,83.5305535 9.29393587,83.5919995 C5.1929721,74.1745468 3.41325431,63.6090627 1.82221285,51.8604718 C-0.324458433,36.0089914 -2.12766231,18.0037771 5.94382171,8.69964729 C14.0153057,-0.604482549 31.9614776,-1.207528 47.5033777,1.20465381 C63.1311447,3.61683562 76.2687729,8.95809534 87.4314636,18.2622252 C98.5941542,27.566355 107.781907,40.7472056 108.898176,55.1341471 C109.928579,69.4349393 103.05923,84.9418224 91.8965398,96.4858353 C80.7338492,108.115998 65.2778159,115.869439 50.7663181,114.921796 C39.9479538,114.27955 29.6068157,108.849342 21.6996581,101.343946 Z" id="Combined-Shape" fill="url(#linearGradient-1)"></path>
    </g>
</svg>